<svg id="instagram-brands" xmlns="http://www.w3.org/2000/svg" width="31" height="30.993" viewBox="0 0 31 30.993">
  <path id="instagram-brands-2" data-name="instagram-brands" d="M15.428,39.375a7.946,7.946,0,1,0,7.946,7.946A7.934,7.934,0,0,0,15.428,39.375Zm0,13.112a5.166,5.166,0,1,1,5.166-5.166,5.175,5.175,0,0,1-5.166,5.166ZM25.553,39.05A1.853,1.853,0,1,1,23.7,37.2,1.849,1.849,0,0,1,25.553,39.05Zm5.263,1.881a9.172,9.172,0,0,0-2.5-6.494,9.232,9.232,0,0,0-6.494-2.5c-2.559-.145-10.228-.145-12.787,0a9.219,9.219,0,0,0-6.494,2.5,9.2,9.2,0,0,0-2.5,6.494c-.145,2.559-.145,10.228,0,12.787a9.172,9.172,0,0,0,2.5,6.494,9.244,9.244,0,0,0,6.494,2.5c2.559.145,10.228.145,12.787,0a9.172,9.172,0,0,0,6.494-2.5,9.232,9.232,0,0,0,2.5-6.494C30.961,51.153,30.961,43.49,30.816,40.931ZM27.51,56.457A5.23,5.23,0,0,1,24.564,59.4c-2.04.809-6.881.622-9.136.622s-7.1.18-9.136-.622a5.23,5.23,0,0,1-2.946-2.946c-.809-2.04-.622-6.881-.622-9.136s-.18-7.1.622-9.136A5.23,5.23,0,0,1,6.293,35.24c2.04-.809,6.881-.622,9.136-.622s7.1-.18,9.136.622a5.23,5.23,0,0,1,2.946,2.946c.809,2.04.622,6.881.622,9.136S28.319,54.424,27.51,56.457Z" transform="translate(0.075 -31.825)"/>
</svg>
